HIERARCHY
ROOT walk
{
	OFFSET 0.000000 0.000000 0.000000 
	CHANNELS 6 Xposition Yposition Zposition Xrotation Yrotation Zrotation
	JOINT Spine_01
	{
		OFFSET -1.880225 130.429459 -44.816216 
		CHANNELS 3 Xrotation Yrotation Zrotation
		JOINT Spine_02
		{
			OFFSET -0.452312 -3.511009 28.147495 
			CHANNELS 3 Xrotation Yrotation Zrotation
			JOINT Spine_03
			{
				OFFSET 0.424650 -1.235359 35.523460 
				CHANNELS 3 Xrotation Yrotation Zrotation
				JOINT Spine_04
				{
					OFFSET 1.909412 3.269379 39.112823 
					CHANNELS 3 Xrotation Yrotation Zrotation
					JOINT Neck_Base
					{
						OFFSET 2.135004 3.565216 29.362640 
						CHANNELS 3 Xrotation Yrotation Zrotation
						JOINT Neck_01
						{
							OFFSET 0.521858 17.357986 10.347549 
							CHANNELS 3 Xrotation Yrotation Zrotation
							JOINT Neck_02
							{
								OFFSET 0.058988 13.361023 16.739761 
								CHANNELS 3 Xrotation Yrotation Zrotation
								JOINT Head
								{
									OFFSET -0.539492 13.043594 17.666031 
									CHANNELS 3 Xrotation Yrotation Zrotation
									JOINT L_Ear
									{
										OFFSET 7.467496 15.735992 10.925293 
										CHANNELS 3 Xrotation Yrotation Zrotation
										End Site
										{
											OFFSET 5.138485 7.968933 -13.963257 
										}
									}
									JOINT R_Ear
									{
										OFFSET -8.374757 15.272873 10.924850 
										CHANNELS 3 Xrotation Yrotation Zrotation
										End Site
										{
											OFFSET 6.251859 -9.054993 12.798508 
										}
									}
									JOINT Jaw
									{
										OFFSET 0.150168 -5.139664 8.004303 
										CHANNELS 3 Xrotation Yrotation Zrotation
										End Site
										{
											OFFSET -0.493383 16.870499 -0.153122 
										}
									}
								}
							}
						}
					}
					JOINT R_Scapula
					{
						OFFSET -6.013766 17.603058 8.137573 
						CHANNELS 3 Xrotation Yrotation Zrotation
						JOINT R_Shoulder
						{
							OFFSET -2.056903 -31.319359 27.875526 
							CHANNELS 3 Xrotation Yrotation Zrotation
							JOINT R_Front_UpperLeg
							{
								OFFSET -4.375710 -32.984421 1.258026 
								CHANNELS 3 Xrotation Yrotation Zrotation
								JOINT R_Front_LowerLeg
								{
									OFFSET 1.234673 -36.968639 14.833778 
									CHANNELS 3 Xrotation Yrotation Zrotation
									JOINT R_Front_Ankle
									{
										OFFSET 0.949254 -28.422693 11.404633 
										CHANNELS 3 Xrotation Yrotation Zrotation
										JOINT R_Front_Hoof
										{
											OFFSET 0.000934 -9.320330 3.769203 
											CHANNELS 3 Xrotation Yrotation Zrotation
											End Site
											{
												OFFSET 0.000196 -0.000001 -10.053627 
											}
										}
									}
								}
							}
						}
					}
					JOINT L_Scapula
					{
						OFFSET 7.463758 17.466232 7.174225 
						CHANNELS 3 Xrotation Yrotation Zrotation
						JOINT L_Shoulder
						{
							OFFSET 5.060481 -37.406906 18.364853 
							CHANNELS 3 Xrotation Yrotation Zrotation
							JOINT L_Front_UpperLeg
							{
								OFFSET 1.156953 -24.598343 -22.411518 
								CHANNELS 3 Xrotation Yrotation Zrotation
								JOINT L_Front_LowerLeg
								{
									OFFSET -1.945167 -38.050449 -11.687790 
									CHANNELS 3 Xrotation Yrotation Zrotation
									JOINT L_Front_Ankle
									{
										OFFSET -1.495424 -29.253286 -8.989708 
										CHANNELS 3 Xrotation Yrotation Zrotation
										JOINT L_Front_Hoof
										{
											OFFSET 0.005647 -9.172993 -4.114658 
											CHANNELS 3 Xrotation Yrotation Zrotation
											End Site
											{
												OFFSET 0.011443 -0.110414 10.052956 
											}
										}
									}
								}
							}
						}
					}
				}
			}
		}
		JOINT L_Hip
		{
			OFFSET 14.680421 -7.742195 -12.373001 
			CHANNELS 3 Xrotation Yrotation Zrotation
			JOINT L_Back_UpperLeg
			{
				OFFSET -0.975421 -35.481834 -0.328365 
				CHANNELS 3 Xrotation Yrotation Zrotation
				JOINT L_Back_LowerLeg
				{
					OFFSET 2.003469 -20.721161 -39.800381 
					CHANNELS 3 Xrotation Yrotation Zrotation
					JOINT L_Back_Ankle
					{
						OFFSET -3.928178 -35.965137 -0.724129 
						CHANNELS 3 Xrotation Yrotation Zrotation
						JOINT L_Back_Hoof
						{
							OFFSET -1.046577 -11.339052 -2.575890 
							CHANNELS 3 Xrotation Yrotation Zrotation
							End Site
							{
								OFFSET -1.803778 -9.311901 6.807320 
							}
						}
					}
				}
			}
		}
		JOINT R_Hip
		{
			OFFSET -15.083144 -6.923843 -12.373531 
			CHANNELS 3 Xrotation Yrotation Zrotation
			JOINT R_Back_UpperLeg
			{
				OFFSET -0.930010 -33.822502 10.733158 
				CHANNELS 3 Xrotation Yrotation Zrotation
				JOINT R_Back_LowerLeg
				{
					OFFSET 6.447086 -37.922318 -23.190071 
					CHANNELS 3 Xrotation Yrotation Zrotation
					JOINT R_Back_Ankle
					{
						OFFSET 0.640329 -32.862473 15.136051 
						CHANNELS 3 Xrotation Yrotation Zrotation
						JOINT R_Back_Hoof
						{
							OFFSET -0.614949 -10.078912 5.860119 
							CHANNELS 3 Xrotation Yrotation Zrotation
							End Site
							{
								OFFSET 1.220568 0.000120 -11.610939 
							}
						}
					}
				}
			}
		}
		JOINT Tail_01
		{
			OFFSET 0.280393 10.183884 -23.500603 
			CHANNELS 3 Xrotation Yrotation Zrotation
			JOINT Tail_02
			{
				OFFSET 3.564261 -14.968864 -15.850166 
				CHANNELS 3 Xrotation Yrotation Zrotation
				JOINT Tail_03
				{
					OFFSET 1.392723 -23.077301 -3.274025 
					CHANNELS 3 Xrotation Yrotation Zrotation
					JOINT Tail_04
					{
						OFFSET -0.257842 -23.115273 2.243027 
						CHANNELS 3 Xrotation Yrotation Zrotation
						JOINT Tail_05
						{
							OFFSET -1.486558 -22.998890 3.854836 
							CHANNELS 3 Xrotation Yrotation Zrotation
							End Site
							{
								OFFSET 4.085572 -4.059879 -22.646049 
							}
						}
					}
				}
			}
		}
	}
}
MOTION
Frames: 4
Frame Time: 0.033333
0.000000 0.000000 0.000000 0.000006 -0.000000 -0.000000 -0.000035 0.001040 3.155547 -0.052741 -1.773577 -0.255450 -0.120046 -2.388998 -1.643666 -0.013019 -0.833792 -0.089656 0.009480 0.275018 0.232051 -0.087402 0.779831 -2.874437 -0.067031 2.704145 -1.471317 -0.015397 1.242933 -0.391371 2.933141 -0.518465 -0.905065 -0.475475 -0.090629 -0.134505 -0.000025 0.000060 0.000010 15.462971 -2.288634 -0.524812 27.869499 -4.160597 -1.206341 -5.088657 10.668097 -2.199733 -0.000074 -0.000019 0.000008 7.230959 -1.195056 -0.521095 -45.547997 -0.004046 -0.002707 -16.702057 -0.873279 -0.382742 -26.054811 -2.995530 0.977135 4.414954 8.715603 2.880144 0.000019 0.000009 0.000006 -7.212494 -0.332456 -1.273116 45.548130 0.004287 0.000140 -18.123749 0.490010 0.077815 -12.568754 6.463668 -2.815335 4.995042 -0.531908 0.564405 -16.891930 -2.891176 0.967958 -10.832047 1.362209 -1.021907 18.123705 -0.489911 0.078474 13.145012 4.280731 -8.545779 -4.751312 -0.371554 -0.682546 16.025635 2.430170 16.163515 10.915801 0.110149 1.140532 -0.255956 20.152996 -7.746401 0.785388 -0.372619 0.940361 0.877923 -0.025085 3.246237 0.118094 0.581297 4.402673 -0.000003 0.000002 0.000000 
0.000000 0.000000 0.000000 0.000006 -0.000000 -0.000000 -0.168242 0.710122 3.287934 1.411165 -2.395634 -0.210442 0.071759 -2.659540 -1.703544 -0.887822 -0.661770 -0.057106 -1.452038 0.067242 0.355369 -0.888572 0.783791 -2.780298 -0.272130 2.749664 -1.475253 0.743060 1.450629 -0.448727 5.737008 -1.007767 -1.709589 -1.705683 -0.326275 -0.492147 -0.000024 0.000060 0.000010 16.653605 -2.481416 -0.384466 26.804285 -3.993676 -1.198272 -2.495087 10.217534 -3.164046 -0.000068 -0.000125 0.000051 5.597417 -0.978050 -0.234784 -47.239433 -0.004146 -0.002861 -21.450483 -1.737692 0.212808 -14.900047 -1.660107 0.726710 0.595212 8.538770 2.120119 0.001179 -0.000042 0.000015 -10.552296 -0.273286 -0.829501 45.637680 0.004472 0.000211 -14.647814 0.398336 0.050922 -14.739625 6.042205 -3.321015 7.620509 -0.790990 0.878811 -18.192482 -2.843670 1.095162 -13.270156 1.694156 -1.215490 7.221745 -0.198002 0.012629 22.098309 3.979306 -7.825691 -9.999563 -0.714348 -1.468622 17.537769 2.043913 17.431568 8.605190 0.068726 0.901173 -0.118241 20.110575 -7.744673 1.134538 0.005147 0.287818 1.289892 -0.000048 2.942391 0.451895 0.558276 4.229974 -0.000003 -0.000000 0.000000 
0.000000 0.000000 0.000000 0.000006 -0.000000 -0.000000 -0.584354 1.369794 3.397355 2.890298 -2.943707 -0.146262 0.412091 -2.871811 -1.743850 -1.638789 -0.483744 -0.026339 -3.001945 -0.127861 0.459679 -1.566524 0.762321 -2.644096 -0.298871 2.744248 -1.463167 1.591683 1.609503 -0.491067 6.969555 -1.223104 -2.047067 -3.395832 -0.651829 -1.006329 -0.000023 0.000060 0.000010 16.205957 -2.452158 -0.070587 29.071747 -4.349097 -1.211711 -6.648593 9.820560 -3.169098 9.593422 0.236480 -0.191106 1.033303 -0.668088 0.267315 -42.711567 -0.003866 -0.002456 -23.816341 -2.401540 0.654863 -5.571617 -0.597865 0.321977 -5.193064 8.173520 1.405710 0.000025 0.000030 0.000013 -12.657584 -0.342868 -0.318083 45.873695 0.004691 0.000075 -10.851170 0.296543 0.027961 -16.738773 5.491944 -3.686737 9.488449 -0.966326 1.109460 -18.845901 -2.773666 1.243956 -15.857756 2.055222 -1.405378 -2.214007 0.060848 0.001137 26.855309 2.966864 -7.256877 -15.209631 -0.981881 -2.276096 20.307901 1.648184 17.826771 5.748557 0.030905 0.603274 -0.067090 19.836500 -7.641102 1.776747 0.281525 -0.096295 2.297645 0.050647 2.876346 1.315974 0.558952 4.235734 -0.000004 0.000003 0.000001 
0.000000 0.000000 0.000000 0.000006 -0.000000 -0.000000 -1.176395 1.964752 3.493794 4.217880 -3.400444 -0.081535 0.795793 -3.021620 -1.774062 -2.244284 -0.307539 0.000009 -4.269192 -0.306533 0.532002 -2.054064 0.712151 -2.488909 -0.240206 2.681397 -1.432882 2.306848 1.718692 -0.520907 6.487073 -1.146876 -1.922466 -5.252847 -1.011416 -1.602167 -0.000023 0.000060 0.000010 14.436344 -2.211955 0.002273 31.652185 -4.753652 -1.209840 -9.928197 9.531607 -2.698208 18.974289 0.433668 -0.413481 -0.493006 -0.549342 0.571766 -32.211803 -0.003101 -0.001611 -24.995531 -2.887547 0.982508 1.454635 0.150638 -0.093467 -9.498623 7.736086 0.571099 0.000019 0.000041 0.000015 -15.056165 -0.444984 0.151992 46.207397 0.004932 -0.000203 -6.852571 0.187940 0.011120 -18.611034 4.857923 -3.910804 10.919540 -1.095469 1.289908 -19.162481 -2.658022 1.381172 -18.514368 2.434523 -1.583238 -7.069285 0.193853 0.011846 23.403322 1.603508 -6.882611 -19.597788 -1.149434 -2.972315 25.166204 1.477977 16.837353 2.564232 0.006305 0.269468 -0.314641 19.308374 -7.406058 3.057065 0.499412 -0.206400 3.697732 0.120783 2.943678 2.498664 0.569492 4.305032 -0.000004 0.000002 0.000001 
